<?xml version="1.0"?>
<svg xmlns="http://www.w3.org/2000/svg" xmlns:xlink="http://www.w3.org/1999/xlink" version="1.1" viewBox="0 0 226 226" width="208px" height="208px"><g transform="translate(-18.08,-18.08) scale(1.16,1.16)"><g fill="none" fill-rule="nonzero" stroke="none" stroke-width="1" stroke-linecap="butt" stroke-linejoin="miter" stroke-miterlimit="10" stroke-dasharray="" stroke-dashoffset="0" font-family="none" font-weight="none" font-size="none" text-anchor="none" style="mix-blend-mode: normal"><path d="M0,226v-226h226v226z" fill="none"/><g fill="#3498db"><g id="surface1"><path d="M173.84615,17.65625c-4.78756,0 -8.69231,3.90475 -8.69231,8.69231v41.5601l-45.90625,-45.90625c-3.39543,-3.39543 -9.09976,-3.39543 -12.49519,0l-101.86298,102.13462c-3.39543,3.39543 -3.39543,8.82812 0,12.22356c3.39543,3.39543 8.82812,3.39543 12.22356,0l95.88702,-95.88702l96.15865,96.15865c1.69772,1.69772 4.00661,2.71635 6.2476,2.71635c2.24099,0 4.27825,-1.01863 5.97596,-2.71635c3.39543,-3.39543 3.39543,-8.82812 0,-12.22356l-30.15144,-30.15144v-67.90865c0,-4.78756 -3.90475,-8.69231 -8.69231,-8.69231zM113,56.5l-95.61538,95.61538v47.80769c0,14.39663 11.68029,26.07692 26.07692,26.07692h139.07692c14.39663,0 26.07692,-11.68029 26.07692,-26.07692v-47.80769zM95.61538,139.07692h34.76923c4.78756,0 8.69231,3.90475 8.69231,8.69231v52.15385c0,4.78756 -3.90475,8.69231 -8.69231,8.69231h-34.76923c-4.78756,0 -8.69231,-3.90475 -8.69231,-8.69231v-52.15385c0,-4.78756 3.90475,-8.69231 8.69231,-8.69231z"/></g></g><path d="M113,226c-62.40818,0 -113,-50.59182 -113,-113v0c0,-62.40818 50.59182,-113 113,-113h0c62.40818,0 113,50.59182 113,113v0c0,62.40818 -50.59182,113 -113,113z" fill="none"/><path d="M113,221.48c-59.91185,0 -108.48,-48.56815 -108.48,-108.48v0c0,-59.91185 48.56815,-108.48 108.48,-108.48v0c59.91185,0 108.48,48.56815 108.48,108.48v0c0,59.91185 -48.56815,108.48 -108.48,108.48z" fill="none"/><path d="M0,226v-226h226v226z" fill="none"/><path d="M4.52,221.48v-216.96h216.96v216.96z" fill="none"/></g></g></svg>
